<?xml version="1.0" encoding="UTF-8" standalone="no"?>
<!-- Generator: Adobe Illustrator 22.0.1, SVG Export Plug-In . SVG Version: 6.00 Build 0)  -->

<svg
   xmlns:dc="http://purl.org/dc/elements/1.1/"
   xmlns:cc="http://creativecommons.org/ns#"
   xmlns:rdf="http://www.w3.org/1999/02/22-rdf-syntax-ns#"
   xmlns:svg="http://www.w3.org/2000/svg"
   xmlns="http://www.w3.org/2000/svg"
   xmlns:sodipodi="http://sodipodi.sourceforge.net/DTD/sodipodi-0.dtd"
   xmlns:inkscape="http://www.inkscape.org/namespaces/inkscape"
   width="82"
   height="52"
   version="1.1"
   id="lni_lni-soundcloud-original"
   x="0px"
   y="0px"
   viewBox="0 0 100.92307 63.999998"
   style="fill:#000000"
   xml:space="preserve"
   sodipodi:docname="soundcloud-original.svg"
   inkscape:version="0.92.5 (2060ec1f9f, 2020-04-08)"><metadata
   id="metadata9"><rdf:RDF><cc:Work
       rdf:about=""><dc:format>image/svg+xml</dc:format><dc:type
         rdf:resource="http://purl.org/dc/dcmitype/StillImage" /><dc:title></dc:title></cc:Work></rdf:RDF></metadata><defs
   id="defs7" /><sodipodi:namedview
   pagecolor="#ffffff"
   bordercolor="#666666"
   borderopacity="1"
   objecttolerance="10"
   gridtolerance="10"
   guidetolerance="10"
   inkscape:pageopacity="0"
   inkscape:pageshadow="2"
   inkscape:window-width="1920"
   inkscape:window-height="1052"
   id="namedview5"
   showgrid="false"
   inkscape:zoom="4.5384615"
   inkscape:cx="-40.322034"
   inkscape:cy="26"
   inkscape:window-x="1920"
   inkscape:window-y="-9"
   inkscape:window-maximized="1"
   inkscape:current-layer="lni_lni-soundcloud-original" />
<path
   d="m 1.5371463,29.385893 c -0.1614609,0 -0.4843826,0.161461 -0.4843826,0.484382 l -0.6458436,5.812593 0.6458436,5.489671 c 0,0.16146 0.1614609,0.484383 0.4843826,0.484383 0.3229219,0 0.161461,-0.161462 0.4843827,-0.484383 v 0 0 0 L 2.6673726,35.682868 2.021529,29.870275 c 0,-0.16146 -0.3229217,-0.484382 -0.4843827,-0.484382 z m 4.1979835,-3.067758 c 0,-0.161459 -0.1614609,-0.484382 -0.4843827,-0.484382 -0.1614608,0 -0.4843827,0.161461 -0.4843827,0.484382 l -0.9687653,8.88035 0.9687653,8.718889 c 0.1614609,0.161462 0.1614609,0.484383 0.4843827,0.484383 0.3229218,0 0.4843827,-0.161462 0.4843827,-0.484383 L 6.8653561,35.198485 Z M 21.235376,18.08363 c -0.484382,0 -0.645843,0.161461 -0.645843,0.645844 l -0.807304,16.630473 0.645843,10.81788 c 0,0.484382 0.161461,0.645844 0.645845,0.645844 0.484381,0 0.645843,-0.161462 0.645843,-0.645844 v 0 L 22.365603,35.359947 21.71976,18.729474 c 0.322921,-0.322923 0,-0.645844 -0.484384,-0.645844 z m -8.073045,5.651132 c -0.16146,0 -0.484382,0.16146 -0.645844,0.484381 l -0.645843,10.979342 0.645843,10.817881 c 0,0.161461 0.161462,0.484383 0.645844,0.484383 0.484384,0 0.484384,-0.161461 0.645843,-0.484383 l 1.130227,-10.817881 -1.130227,-10.81788 c -0.161459,-0.161462 -0.161459,-0.645843 -0.645843,-0.645843 z m 16.307552,23.088909 c 0.484382,0 0.968766,-0.484383 0.968766,-0.968766 L 31.084492,35.359947 30.438649,13.239804 c 0,-0.484384 -0.484384,-0.968767 -0.968766,-0.968767 -0.484383,0 -0.968766,0.484383 -0.968766,0.968767 l -0.645844,22.120143 0.645844,10.494958 c 0,0.484383 0.484383,0.968766 0.968766,0.968766 z m 16.630473,0.16146 c 0.645843,0 1.130226,-0.484382 1.130226,-1.130226 v 0 0 L 47.714965,35.521408 47.230582,10.010585 c 0,-0.6458441 -0.645844,-1.1302263 -1.130226,-1.1302263 -0.645844,0 -1.130226,0.4843822 -1.130226,1.1302263 l -0.645845,25.672283 0.484384,10.333498 c 0.161461,0.322922 0.645843,0.968765 1.291687,0.968765 z m -8.395967,-0.16146 c 0.645843,0 1.130226,-0.484383 1.130226,-1.130226 v 0 L 39.480459,35.359947 38.834615,13.239804 c 0,-0.645844 -0.484383,-1.130228 -1.130226,-1.130228 -0.645843,0 -1.130227,0.484384 -1.130227,1.130228 l -0.645843,22.120143 0.645843,10.333498 c 0,0.645843 0.322922,1.130226 1.130227,1.130226 z M 17.360315,46.662209 c 0.161462,0 0.645843,-0.16146 0.645843,-0.645843 L 18.974925,35.198485 18.006158,25.18791 c 0,-0.484383 -0.16146,-0.645844 -0.645843,-0.645844 -0.484382,0 -0.807305,0.161461 -0.807305,0.645844 l -0.645843,10.333498 0.645843,10.81788 c 0,0.322921 0.322923,0.322921 0.807305,0.322921 z M 9.1258092,46.177827 c 0.1614602,0 0.484382,-0.161461 0.484382,-0.484382 L 10.740418,35.359947 9.7716526,24.542066 c 0,-0.161461 -0.1614614,-0.645844 -0.6458434,-0.645844 -0.1614614,0 -0.4843832,0.161462 -0.4843832,0.484383 L 7.6726607,35.198485 8.641426,45.531983 c 0.161461,0.645844 0.4843832,0.645844 0.4843832,0.645844 z M 42.063834,12.75542 c -0.645845,0 -1.130227,0.484384 -1.130227,1.130227 l -0.484383,21.4743 0.484383,10.333498 c 0,0.645843 0.484382,1.130226 1.130227,1.130226 0.645843,0 1.130225,-0.484383 1.130225,-1.130226 v 0 l 0.645844,-10.333498 -0.645844,-21.4743 C 42.871137,13.401263 42.386755,12.75542 42.063834,12.75542 Z M 25.2719,46.823671 c 0.484382,0 0.645843,-0.161462 0.645843,-0.645844 l 0.645844,-10.81788 -0.645844,-20.182613 c 0,-0.484382 -0.484383,-0.645844 -0.645843,-0.645844 -0.484383,0 -0.645844,0.161462 -0.645844,0.645844 l -0.645844,20.344074 0.645844,10.81788 c 0,0.322921 0.161461,0.484383 0.645844,0.484383 z m 9.20327,-0.968766 v 0 L 35.121014,35.359947 34.47517,12.75542 c 0,-0.484383 -0.484381,-1.130226 -1.130226,-1.130226 -0.484382,0 -0.968765,0.484382 -1.130226,1.130226 l -0.645843,22.604527 0.645843,10.494958 c 0,0.484383 0.484383,1.130226 1.130226,1.130226 0.645845,-0.16146 1.130226,-0.645843 1.130226,-1.130226 z M 88.241651,22.120152 c -1.776069,0 -3.229218,0.161461 -4.843827,0.968766 C 82.429058,11.948115 73.064327,3.2292274 61.762063,3.2292274 c -2.744835,0 -5.48967,0.484382 -7.750124,1.2916868 -0.968765,0.1614603 -1.130225,0.6458435 -1.130225,1.2916872 V 44.88614 c 0,0.645843 0.645844,1.291687 1.291687,1.291687 h 34.06825 c 6.781358,0 12.271029,-5.489672 12.271029,-12.271028 0.16146,-6.296975 -5.32821,-11.786647 -12.271029,-11.786647 z M 50.459801,6.1355232 c -0.645845,0 -1.291688,0.6458433 -1.291688,1.2916863 L 48.68373,35.198485 49.168113,45.531983 c 0,0.645844 0.645843,1.291688 1.291688,1.291688 0.645843,0 1.291686,-0.645844 1.291686,-1.291688 v 0 L 52.397331,35.198485 51.751487,7.5886715 c 0,-0.807305 -0.645843,-1.4531483 -1.291686,-1.4531483 z M 10.417496,54.573794 c -1.2916868,-0.161462 -1.77607,-0.484383 -1.77607,-1.130226 0,-0.484384 0.161461,-0.645844 1.1302266,-0.645844 0.6458434,0 1.2916864,0.16146 2.0989914,0.968765 l 1.291687,-1.130226 c -0.645844,-0.968766 -1.77607,-1.291687 -3.3906784,-1.291687 -1.7760702,0 -3.2292183,1.130226 -3.2292183,2.744835 0,1.77607 1.1302264,2.260453 2.7448351,2.744835 1.7760696,0.161462 2.0989916,0.645844 2.0989916,1.291688 0,0.645843 -0.484381,0.968765 -1.6146084,0.968765 -0.6458434,0 -1.7760702,-0.161461 -2.2604528,-1.130227 l -1.1302263,1.130227 c 0.6458435,1.130227 2.0989917,1.77607 3.7136005,1.77607 2.583375,0 3.7136,-1.130226 3.7136,-2.906297 -0.161459,-2.421913 -1.93753,-2.906296 -3.390678,-3.390678 z m 8.557429,-3.713602 c -2.583375,0 -4.036524,1.776071 -4.036524,4.843827 0,2.744837 1.291687,4.843829 4.036524,4.843829 2.744835,0 4.036522,-1.776071 4.036522,-4.843829 0,-2.744835 -1.614609,-4.843827 -4.036522,-4.843827 z m 0,7.588664 c -1.291689,0 -2.098992,-1.130227 -2.098992,-2.906297 0,-1.77607 0.645844,-2.906296 2.098992,-2.906296 1.291687,0 2.098992,1.130226 2.098992,2.906296 -0.161462,1.77607 -0.484384,2.906297 -2.098992,2.906297 z m 11.302262,-2.260453 c 0,1.291687 -0.645843,2.260453 -1.77607,2.260453 -1.130225,0 -1.77607,-0.968766 -1.77607,-2.260453 v -5.328211 h -1.77607 v 5.328211 c 0,2.744835 1.291688,4.359445 3.713601,4.359445 2.260452,0 3.713601,-1.61461 3.713601,-4.359445 v -5.328211 h -1.776071 z m 9.849115,-1.130227 c 0,0.484383 0,1.77607 0,2.098991 -0.16146,-0.161459 -0.484382,-0.645843 -0.645843,-1.130225 L 36.251241,51.183115 H 34.47517 v 9.203271 h 1.776071 v -4.197983 c 0,-0.484384 0,-1.776071 0,-2.098992 0.16146,0.161462 0.484383,0.645844 0.645843,1.130226 l 3.39068,5.005289 h 1.77607 v -9.203272 h -1.77607 z m 6.942819,-4.197984 h -2.744836 v 9.203273 h 2.744836 c 2.260452,0 4.843827,-1.291688 4.843827,-4.843828 -0.161461,-2.744835 -2.098992,-4.359445 -4.843827,-4.359445 z m 0,7.588664 h -1.130226 v -5.651132 h 0.968766 c 1.776069,0 2.744835,0.968765 2.744835,2.744835 0.16146,2.098992 -0.807305,2.906297 -2.583375,2.906297 z m 10.172036,-5.651132 c 0.645845,0 1.291689,0.16146 1.776071,0.968765 l 1.77607,-0.645843 c -0.484384,-1.130226 -1.614609,-2.098992 -3.390679,-2.098992 -2.260453,0 -4.036523,1.77607 -4.036523,4.843827 0,2.906296 1.61461,4.843827 4.036523,4.843827 1.77607,0 2.744835,-0.645843 3.390679,-2.098991 l -1.614609,-0.968766 c -0.484382,0.645843 -0.968766,1.130226 -1.77607,1.130226 -1.291688,0 -2.260453,-1.130226 -2.260453,-2.906296 0.161461,-1.93753 0.807305,-3.067757 2.098991,-3.067757 z m 6.942819,-1.937532 h -1.77607 v 9.203273 h 5.489672 v -1.776071 h -3.713602 z m 8.395967,0 c -2.583373,0 -4.036522,1.776071 -4.036522,4.843827 0,2.744837 1.291687,4.843829 4.036522,4.843829 2.744836,0 4.036524,-1.776071 4.036524,-4.843829 0.161459,-2.744835 -1.291688,-4.843827 -4.036524,-4.843827 z m 0,7.588664 c -1.291687,0 -2.098992,-1.130227 -2.098992,-2.906297 0,-1.77607 0.645845,-2.906296 2.098992,-2.906296 1.291688,0 2.098992,1.130226 2.098992,2.906296 0.161461,1.77607 -0.484382,2.906297 -2.098992,2.906297 z m 11.625185,-2.260453 c 0,1.291687 -0.645843,2.260453 -1.77607,2.260453 -1.130225,0 -1.77607,-0.968766 -1.77607,-2.260453 v -5.328211 h -1.77607 v 5.328211 c 0,2.744835 1.291689,4.359445 3.713601,4.359445 2.260453,0 3.713601,-1.61461 3.713601,-4.359445 v -5.328211 h -1.776069 v 5.328211 z m 6.942819,-5.328211 h -2.744835 v 9.203273 h 2.744835 c 2.260453,0 4.843828,-1.291688 4.843828,-4.843828 -0.322922,-2.744835 -2.421914,-4.359445 -4.843828,-4.359445 z m 0,7.588664 h -0.968765 v -5.651132 h 0.968765 c 1.77607,0 2.744837,0.968765 2.744837,2.744835 -0.322923,2.098992 -0.968767,2.906297 -2.744837,2.906297 z"
   id="path2"
   inkscape:connector-curvature="0"
   style="stroke-width:1.614609" />
</svg>