<?xml version="1.0" encoding="UTF-8" standalone="no"?>
<!-- Generator: Adobe Illustrator 22.0.1, SVG Export Plug-In . SVG Version: 6.00 Build 0)  -->

<svg
   xmlns:dc="http://purl.org/dc/elements/1.1/"
   xmlns:cc="http://creativecommons.org/ns#"
   xmlns:rdf="http://www.w3.org/1999/02/22-rdf-syntax-ns#"
   xmlns:svg="http://www.w3.org/2000/svg"
   xmlns="http://www.w3.org/2000/svg"
   xmlns:sodipodi="http://sodipodi.sourceforge.net/DTD/sodipodi-0.dtd"
   xmlns:inkscape="http://www.inkscape.org/namespaces/inkscape"
   width="73"
   height="52"
   version="1.1"
   id="lni_lni-youtube"
   x="0px"
   y="0px"
   viewBox="0 0 89.846154 64"
   style="fill:#000000"
   xml:space="preserve"
   sodipodi:docname="youtube.svg"
   inkscape:version="0.92.5 (2060ec1f9f, 2020-04-08)"><metadata
   id="metadata9"><rdf:RDF><cc:Work
       rdf:about=""><dc:format>image/svg+xml</dc:format><dc:type
         rdf:resource="http://purl.org/dc/dcmitype/StillImage" /><dc:title></dc:title></cc:Work></rdf:RDF></metadata><defs
   id="defs7" /><sodipodi:namedview
   pagecolor="#ffffff"
   bordercolor="#666666"
   borderopacity="1"
   objecttolerance="10"
   gridtolerance="10"
   guidetolerance="10"
   inkscape:pageopacity="0"
   inkscape:pageshadow="2"
   inkscape:window-width="1920"
   inkscape:window-height="1052"
   id="namedview5"
   showgrid="false"
   fit-margin-top="0"
   fit-margin-left="0"
   fit-margin-right="0"
   fit-margin-bottom="0"
   inkscape:zoom="4.5384615"
   inkscape:cx="12.407839"
   inkscape:cy="25.03464"
   inkscape:window-x="1920"
   inkscape:window-y="-9"
   inkscape:window-maximized="1"
   inkscape:current-layer="lni_lni-youtube" />
<path
   d="M 82.640198,13.077943 C 81.751243,9.6491141 79.084376,6.982247 75.655545,6.0932913 69.55985,4.4423734 44.923077,4.4423734 44.923077,4.4423734 c 0,0 -24.636773,0 -30.732468,1.6509179 C 10.761779,6.982247 8.0949118,9.6491141 7.2059562,13.077943 5.5550385,19.300632 5.5550385,32 5.5550385,32 c 0,0 0,12.826361 1.6509177,18.922058 0.8889556,3.428828 3.5558228,6.095695 6.9846528,6.984651 6.095695,1.650917 30.732468,1.650917 30.732468,1.650917 0,0 24.636773,0 30.732468,-1.650917 3.428831,-0.888956 6.095698,-3.555823 6.984653,-6.984651 C 84.291116,44.826361 84.291116,32 84.291116,32 c 0,0 0,-12.699368 -1.650918,-18.922057 z M 37.049469,43.810411 V 20.189589 L 57.495451,32 Z"
   id="path2"
   inkscape:connector-curvature="0"
   style="stroke-width:1.2699368" />
</svg>