<?xml version="1.0" encoding="UTF-8" standalone="no"?>
<!-- Generator: Adobe Illustrator 22.0.1, SVG Export Plug-In . SVG Version: 6.00 Build 0)  -->

<svg
   xmlns:dc="http://purl.org/dc/elements/1.1/"
   xmlns:cc="http://creativecommons.org/ns#"
   xmlns:rdf="http://www.w3.org/1999/02/22-rdf-syntax-ns#"
   xmlns:svg="http://www.w3.org/2000/svg"
   xmlns="http://www.w3.org/2000/svg"
   xmlns:sodipodi="http://sodipodi.sourceforge.net/DTD/sodipodi-0.dtd"
   xmlns:inkscape="http://www.inkscape.org/namespaces/inkscape"
   width="118"
   height="52"
   version="1.1"
   id="lni_lni-apple-music"
   x="0px"
   y="0px"
   viewBox="0 0 145.23076 64.000001"
   style="fill:#000000"
   xml:space="preserve"
   sodipodi:docname="apple-music.svg"
   inkscape:version="0.92.5 (2060ec1f9f, 2020-04-08)"><metadata
   id="metadata11"><rdf:RDF><cc:Work
       rdf:about=""><dc:format>image/svg+xml</dc:format><dc:type
         rdf:resource="http://purl.org/dc/dcmitype/StillImage" /><dc:title></dc:title></cc:Work></rdf:RDF></metadata><defs
   id="defs9" /><sodipodi:namedview
   pagecolor="#ffffff"
   bordercolor="#666666"
   borderopacity="1"
   objecttolerance="10"
   gridtolerance="10"
   guidetolerance="10"
   inkscape:pageopacity="0"
   inkscape:pageshadow="2"
   inkscape:window-width="1920"
   inkscape:window-height="1052"
   id="namedview7"
   showgrid="false"
   fit-margin-top="0"
   fit-margin-left="0"
   fit-margin-right="0"
   fit-margin-bottom="0"
   inkscape:zoom="6.4183539"
   inkscape:cx="59.848186"
   inkscape:cy="31.969635"
   inkscape:window-x="1920"
   inkscape:window-y="-9"
   inkscape:window-maximized="1"
   inkscape:current-layer="lni_lni-apple-music" />

<g
   id="g4"
   transform="matrix(2.2797866,0,0,2.2797866,-0.33778849,-45.004337)">
	<path
   d="m 10.7,32.4 c 0,-1.2 0.5,-2.2 1.6,-2.8 -0.6,-0.9 -1.4,-1.3 -2.6,-1.4 -0.4,0 -0.9,0 -1.6,0.3 -0.6,0.3 -1,0.4 -1.2,0.4 -0.1,0 -0.5,-0.1 -1,-0.4 C 5.4,28.1 5,28 4.6,28 4,28 3.4,28.1 2.9,28.5 2.4,28.9 2,29.3 1.6,29.8 1.3,30.4 1,31.4 1,32.4 c 0,0.9 0.1,1.8 0.4,2.7 0.3,0.9 0.6,1.6 1,2.2 0.4,0.5 0.8,1 1,1.3 0.4,0.4 0.8,0.6 1.3,0.6 0.3,0 0.6,-0.1 1,-0.3 0.4,-0.1 0.9,-0.3 1.3,-0.3 0.4,0 0.8,0.1 1.2,0.3 0.5,0.3 0.9,0.3 1.2,0.3 0.4,0 0.9,-0.3 1.3,-0.5 0.1,-0.1 0.3,-0.3 0.4,-0.5 0.1,-0.3 0.4,-0.5 0.5,-0.8 0.1,-0.3 0.3,-0.4 0.4,-0.6 0.1,-0.3 0.3,-0.5 0.4,-0.8 0,-0.1 0.1,-0.3 0.1,-0.4 0,-0.1 0.1,-0.3 0.1,-0.4 -0.4,-0.1 -0.6,-0.4 -0.9,-0.6 -0.7,-0.4 -1,-1.2 -1,-2.2 z m 10.4,2.7 v 0 l -3,-6.7 h -2.3 v 10.7 h 1.9 v -7 h 0.1 l 2.5,5.6 h 1.4 l 2.5,-5.6 h 0.1 v 7 h 2.1 V 28.4 H 24 Z M 8.9,27 c 0.5,-0.6 0.8,-1.3 0.8,-2.1 v -0.1 -0.1 c -0.4,0 -0.8,0.1 -1.2,0.4 -0.4,0.3 -0.8,0.5 -1,0.8 -0.5,0.6 -0.8,1.3 -0.8,1.9 v 0.1 0.1 c 0.8,0.1 1.5,-0.3 2.2,-1 z m 40.9,1.4 H 52 v 10.7 h -2.2 z m 9.1,1.7 c 1.3,0 2.1,1 2.1,2.1 h 2 V 32 c 0,-2.1 -1.6,-3.9 -4.3,-3.9 -2.8,0 -4.5,1.8 -4.5,5 v 1.2 c 0,3.1 1.7,4.9 4.5,4.9 2.7,0 4.3,-1.8 4.3,-3.8 v -0.3 h -2.2 c 0,1.2 -0.6,2.1 -2.1,2.1 -1.5,0 -2.2,-1 -2.2,-3.1 V 33 c 0,-1.9 0.9,-2.9 2.4,-2.9 z m -24,5.1 c 0,1.4 -0.9,2.2 -2.1,2.2 -1.3,0 -2.1,-0.8 -2.1,-2.2 v -6.9 h -2.2 v 7.1 c 0,2.3 1.7,3.9 4.3,3.9 2.7,0 4.3,-1.6 4.3,-3.9 V 28.3 H 34.9 Z M 44.6,32.9 43,32.5 c -0.9,-0.3 -1.4,-0.6 -1.4,-1.3 0,-0.8 0.6,-1.3 1.8,-1.3 1.2,0 1.8,0.6 1.9,1.4 h 2.1 c 0,-1.9 -1.6,-3.2 -4,-3.2 -2.2,0 -4,1.2 -4,3.2 0,1.8 1.3,2.7 2.7,3 l 1.6,0.4 c 1,0.3 1.6,0.6 1.6,1.3 0,0.8 -0.6,1.4 -1.9,1.4 -1.3,0 -2.1,-0.6 -2.1,-1.6 h -2.2 c 0,1.6 1,3.4 4.1,3.4 2.6,0 4.3,-1.3 4.3,-3.4 0,-1.9 -1.3,-2.5 -2.9,-2.9 z"
   id="path2"
   inkscape:connector-curvature="0" />
</g></svg>