<?xml version="1.0" encoding="UTF-8" standalone="no"?>
<!-- Generator: Adobe Illustrator 22.0.1, SVG Export Plug-In . SVG Version: 6.00 Build 0)  -->

<svg
   xmlns:dc="http://purl.org/dc/elements/1.1/"
   xmlns:cc="http://creativecommons.org/ns#"
   xmlns:rdf="http://www.w3.org/1999/02/22-rdf-syntax-ns#"
   xmlns:svg="http://www.w3.org/2000/svg"
   xmlns="http://www.w3.org/2000/svg"
   xmlns:sodipodi="http://sodipodi.sourceforge.net/DTD/sodipodi-0.dtd"
   xmlns:inkscape="http://www.inkscape.org/namespaces/inkscape"
   fill="#000000"
   width="52"
   height="52"
   version="1.1"
   id="lni_lni-facebook-original"
   x="0px"
   y="0px"
   viewBox="0 0 64 64"
   style="enable-background:new 0 0 64 64;"
   xml:space="preserve"
   sodipodi:docname="yt-music.svg"
   inkscape:version="0.92.5 (2060ec1f9f, 2020-04-08)"><metadata
   id="metadata992"><rdf:RDF><cc:Work
       rdf:about=""><dc:format>image/svg+xml</dc:format><dc:type
         rdf:resource="http://purl.org/dc/dcmitype/StillImage" /><dc:title></dc:title></cc:Work></rdf:RDF></metadata><defs
   id="defs990" /><sodipodi:namedview
   pagecolor="#ffffff"
   bordercolor="#666666"
   borderopacity="1"
   objecttolerance="10"
   gridtolerance="10"
   guidetolerance="10"
   inkscape:pageopacity="0"
   inkscape:pageshadow="2"
   inkscape:window-width="1920"
   inkscape:window-height="1052"
   id="namedview988"
   showgrid="false"
   inkscape:zoom="12.836708"
   inkscape:cx="17.762937"
   inkscape:cy="25.751356"
   inkscape:window-x="1920"
   inkscape:window-y="-9"
   inkscape:window-maximized="1"
   inkscape:current-layer="lni_lni-facebook-original" />

<path
   style="opacity:1;fill:#000000;fill-opacity:1;stroke:none;stroke-width:5.40544271;stroke-linecap:butt;stroke-miterlimit:4;stroke-dasharray:none;stroke-dashoffset:0;stroke-opacity:1"
   d="M 31.999999,0.59917839 A 31.401424,31.401424 0 0 0 28.865886,0.75588404 31.401138,31.401138 0 0 0 16.946311,4.4421971 31.401424,31.401424 0 0 0 14.269878,6.083875 a 31.401138,31.401138 0 0 0 -4.7956894,4.039523 31.401138,31.401138 0 0 0 -2.0719965,2.355559 31.401424,31.401424 0 0 0 -1.8257449,2.554549 31.401138,31.401138 0 0 0 -1.5620813,2.721206 31.401424,31.401424 0 0 0 0,0.0025 31.401138,31.401138 0 0 0 -1.2810063,2.862987 31.401424,31.401424 0 0 0 -0.9899815,2.979895 31.401138,31.401138 0 0 0 -0.6865198,3.061978 31.401424,31.401424 0 0 0 -0.3780834,3.1167 31.401138,31.401138 0 0 0 -0.0795965,2.218753 31.401424,31.401424 0 0 0 0,0.0025 31.401424,31.401424 0 0 0 0.15670565,3.134113 31.401138,31.401138 0 0 0 1.08698975,5.526981 31.401138,31.401138 0 0 0 0.159193,0.616873 31.401424,31.401424 0 0 0 0.2885373,0.788504 31.401138,31.401138 0 0 0 2.151593,4.987217 31.401138,31.401138 0 0 0 3.539557,5.173773 31.401424,31.401424 0 0 0 0.00249,0.0025 31.401138,31.401138 0 0 0 2.1391569,2.295861 31.401138,31.401138 0 0 0 2.355559,2.071996 31.401424,31.401424 0 0 0 2.554549,1.825745 31.401138,31.401138 0 0 0 2.721206,1.562081 31.401424,31.401424 0 0 0 0.0025,0 31.401138,31.401138 0 0 0 2.862987,1.281007 31.401424,31.401424 0 0 0 0.0025,0 31.401138,31.401138 0 0 0 2.97492,0.989981 31.401424,31.401424 0 0 0 0.0025,0 31.401138,31.401138 0 0 0 8.399918,1.1442 31.401424,31.401424 0 0 0 3.134113,-0.156706 31.401138,31.401138 0 0 0 11.919575,-3.686313 31.401424,31.401424 0 0 0 2.676433,-1.641678 31.401138,31.401138 0 0 0 4.79569,-4.039523 31.401424,31.401424 0 0 0 2.071996,-2.355558 31.401138,31.401138 0 0 0 0,-0.0025 31.401424,31.401424 0 0 0 3.387826,-5.273269 31.401138,31.401138 0 0 0 0,-0.0025 31.401424,31.401424 0 0 0 1.281007,-2.862987 31.401138,31.401138 0 0 0 0,-0.0025 31.401424,31.401424 0 0 0 1.676501,-6.039386 31.401138,31.401138 0 0 0 0,-0.0025 31.401424,31.401424 0 0 0 0.45768,-5.335453 31.401424,31.401424 0 0 0 0,-0.0025 31.401138,31.401138 0 0 0 -0.156706,-3.131626 31.401424,31.401424 0 0 0 0,-0.0025 31.401138,31.401138 0 0 0 -0.470117,-3.101776 31.401424,31.401424 0 0 0 0,-0.0025 31.401138,31.401138 0 0 0 -0.776065,-3.03959 31.401424,31.401424 0 0 0 -1.077041,-2.950047 31.401138,31.401138 0 0 0 -1.36309,-2.823187 31.401424,31.401424 0 0 0 0,-0.0025 31.401138,31.401138 0 0 0 -1.641678,-2.673945 31.401424,31.401424 0 0 0 0,-0.0025 A 31.401138,31.401138 0 0 0 56.015757,11.77005 31.401424,31.401424 0 0 0 46.242799,4.0143659 31.401138,31.401138 0 0 0 40.399918,1.7433781 31.401138,31.401138 0 0 0 31.999999,0.59917839 Z m 0,5.78069611 c 14.116095,0 25.620126,11.5040295 25.620126,25.6201245 -2e-6,14.116095 -11.504031,25.620126 -25.620126,25.620126 -14.116095,-2e-6 -25.6201245,-11.504031 -25.6201245,-25.620126 0,-14.116095 11.5040295,-25.6201245 25.6201245,-25.6201245 z m 0,5.6911495 c -11.039922,0 -19.928975,8.889053 -19.928975,19.928975 0,11.039922 8.889053,19.928976 19.928975,19.928976 11.039922,-2e-6 19.928976,-8.889054 19.928976,-19.928976 -2e-6,-11.039922 -8.889054,-19.928975 -19.928976,-19.928975 z m -7.939751,6.380158 11.760383,6.790576 11.760384,6.790578 -11.760384,6.793063 -11.760383,6.78809 V 32.032336 Z"
   id="path840"
   inkscape:connector-curvature="0" /></svg>