<?xml version="1.0" encoding="UTF-8" standalone="no"?>
<!-- Created with Inkscape (http://www.inkscape.org/) -->

<svg
   xmlns:dc="http://purl.org/dc/elements/1.1/"
   xmlns:cc="http://creativecommons.org/ns#"
   xmlns:rdf="http://www.w3.org/1999/02/22-rdf-syntax-ns#"
   xmlns:svg="http://www.w3.org/2000/svg"
   xmlns="http://www.w3.org/2000/svg"
   xmlns:sodipodi="http://sodipodi.sourceforge.net/DTD/sodipodi-0.dtd"
   xmlns:inkscape="http://www.inkscape.org/namespaces/inkscape"
   width="202.92862mm"
   height="21.448889mm"
   viewBox="0 0 202.92862 21.448889"
   version="1.1"
   id="svg8"
   inkscape:version="0.92.5 (2060ec1f9f, 2020-04-08)"
   sodipodi:docname="sleepingaliencreature.svg">
  <defs
     id="defs2" />
  <sodipodi:namedview
     id="base"
     pagecolor="#ffffff"
     bordercolor="#666666"
     borderopacity="1.0"
     inkscape:pageopacity="0.0"
     inkscape:pageshadow="2"
     inkscape:zoom="0.7"
     inkscape:cx="-61.051381"
     inkscape:cy="243.74785"
     inkscape:document-units="mm"
     inkscape:current-layer="layer1"
     showgrid="false"
     fit-margin-top="0"
     fit-margin-left="0"
     fit-margin-right="0"
     fit-margin-bottom="0"
     inkscape:window-width="1920"
     inkscape:window-height="1052"
     inkscape:window-x="1920"
     inkscape:window-y="-9"
     inkscape:window-maximized="1" />
  <metadata
     id="metadata5">
    <rdf:RDF>
      <cc:Work
         rdf:about="">
        <dc:format>image/svg+xml</dc:format>
        <dc:type
           rdf:resource="http://purl.org/dc/dcmitype/StillImage" />
        <dc:title></dc:title>
      </cc:Work>
    </rdf:RDF>
  </metadata>
  <g
     inkscape:label="Layer 1"
     inkscape:groupmode="layer"
     id="layer1"
     transform="translate(-4.1978575,-107.05557)">
    <g
       aria-label="sleepingaliencreature"
       style="font-style:normal;font-weight:normal;font-size:10.58333302px;line-height:1.25;font-family:sans-serif;letter-spacing:0px;word-spacing:0px;fill:#444444;fill-opacity:1;stroke:none;stroke-width:0.26458332"
       id="text817">
      <path
         d="m 4.3784797,118.93148 h 0.4064 l 0.8353778,1.78364 q 1.2192,2.14489 3.1608889,2.14489 1.0385777,0 1.5352886,-0.49671 0.519289,-0.51929 0.519289,-1.39982 0,-0.51929 -0.4064,-0.92569 -0.383822,-0.42898 -1.0385776,-0.67734 l -2.5738667,-1.03857 q -1.2192,-0.49671 -1.9191111,-1.19663 -0.6999111,-0.69991 -0.6999111,-1.78364 0,-1.37724 0.8579555,-2.07716 0.8579556,-0.69991 2.1674667,-0.69991 0.6547555,0 1.2192,0.22578 0.5870222,0.2032 0.9708444,0.49671 0.4967112,0.36125 0.7450669,0.36125 0.293511,0 0.361244,-0.4064 l 0.04516,-0.45156 h 0.4064 v 3.43182 h -0.4064 l -0.316089,-0.79022 q -0.519289,-1.28693 -1.3772445,-1.80622 -0.8353778,-0.51929 -1.6707556,-0.51929 -0.8353778,0 -1.3772444,0.42898 -0.5418667,0.4064 -0.5418667,1.15146 0,0.65476 0.5192889,1.08374 0.5418667,0.4064 1.4675555,0.79022 l 2.4384001,1.016 q 1.0837337,0.45156 1.6255997,1.10631 0.541867,0.63218 0.541867,1.78365 0,1.51271 -0.857956,2.2352 -0.857955,0.69991 -2.2577774,0.69991 -0.8353778,0 -1.3546667,-0.22578 -0.5192889,-0.22578 -1.016,-0.6096 -0.2032,-0.15805 -0.4064,-0.27093 -0.2032,-0.11289 -0.3612444,-0.11289 -0.5418667,0 -0.7450667,0.76764 l -0.090311,0.45156 h -0.4064 z"
         style="font-style:normal;font-variant:normal;font-weight:normal;font-stretch:normal;font-size:22.57777786px;font-family:'Old Standard TT';-inkscape-font-specification:'Old Standard TT';fill:#444444;fill-opacity:1;stroke-width:0.26458332"
         id="path9" />
      <path
         d="m 13.454704,122.58908 h 1.174044 q 0.270933,0 0.383822,-0.11289 0.112889,-0.11289 0.112889,-0.38382 v -13.99823 q 0,-0.27093 -0.112889,-0.38382 -0.112889,-0.11289 -0.383822,-0.11289 h -1.174044 v -0.54186 h 3.296355 v 15.0368 q 0,0.27093 0.112889,0.38382 0.112889,0.11289 0.383822,0.11289 h 1.174045 v 0.54186 h -4.967111 z"
         style="font-style:normal;font-variant:normal;font-weight:normal;font-stretch:normal;font-size:22.57777786px;font-family:'Old Standard TT';-inkscape-font-specification:'Old Standard TT';fill:#444444;fill-opacity:1;stroke-width:0.26458332"
         id="path11" />
      <path
         d="m 24.653249,123.40188 q -2.099734,0 -3.386667,-1.4224 -1.264356,-1.4224 -1.264356,-3.95111 0,-1.44498 0.564445,-2.68676 0.564444,-1.26436 1.557866,-2.00942 1.016,-0.76765 2.257778,-0.76765 1.377245,0 2.257778,0.74507 0.880533,0.74507 1.264356,1.89653 0.4064,1.12889 0.4064,2.32551 0,0.24836 -0.158045,0.33867 -0.158044,0.0677 -0.541866,0.0677 h -5.621867 q 0,2.25778 0.632178,3.58987 0.654755,1.33209 2.122311,1.33209 1.038578,0 1.941689,-0.79022 0.925689,-0.79022 1.174044,-2.46098 h 0.541867 q -0.135467,1.64818 -1.151467,2.73191 -0.993422,1.06116 -2.596444,1.06116 z m 1.715911,-6.00569 q 0,-1.80622 -0.474134,-3.048 -0.474133,-1.24178 -1.557866,-1.24178 -1.151467,0 -1.761067,1.26436 -0.587022,1.24177 -0.587022,3.02542 z"
         style="font-style:normal;font-variant:normal;font-weight:normal;font-stretch:normal;font-size:22.57777786px;font-family:'Old Standard TT';-inkscape-font-specification:'Old Standard TT';fill:#444444;fill-opacity:1;stroke-width:0.26458332"
         id="path13" />
      <path
         d="m 35.039006,123.40188 q -2.099733,0 -3.386667,-1.4224 -1.264355,-1.4224 -1.264355,-3.95111 0,-1.44498 0.564444,-2.68676 0.564445,-1.26436 1.557867,-2.00942 1.016,-0.76765 2.257778,-0.76765 1.377244,0 2.257778,0.74507 0.880533,0.74507 1.264355,1.89653 0.4064,1.12889 0.4064,2.32551 0,0.24836 -0.158044,0.33867 -0.158045,0.0677 -0.541867,0.0677 h -5.621867 q 0,2.25778 0.632178,3.58987 0.654756,1.33209 2.122311,1.33209 1.038578,0 1.941689,-0.79022 0.925689,-0.79022 1.174045,-2.46098 h 0.541866 q -0.135466,1.64818 -1.151466,2.73191 -0.993423,1.06116 -2.596445,1.06116 z m 1.715911,-6.00569 q 0,-1.80622 -0.474133,-3.048 -0.474133,-1.24178 -1.557867,-1.24178 -1.151467,0 -1.761067,1.26436 -0.587022,1.24177 -0.587022,3.02542 z"
         style="font-style:normal;font-variant:normal;font-weight:normal;font-stretch:normal;font-size:22.57777786px;font-family:'Old Standard TT';-inkscape-font-specification:'Old Standard TT';fill:#444444;fill-opacity:1;stroke-width:0.26458332"
         id="path15" />
      <path
         d="m 40.322186,127.78197 h 1.174044 q 0.270933,0 0.383822,-0.11289 0.112889,-0.11289 0.112889,-0.38383 v -13.4112 q 0,-0.27093 -0.112889,-0.38382 -0.112889,-0.11289 -0.383822,-0.11289 h -1.174044 v -0.54186 h 3.296355 v 1.67075 l 0.09031,0.0226 q 0.428978,-0.90311 1.083734,-1.4224 0.677333,-0.54187 1.535289,-0.54187 1.061155,0 1.964266,0.72249 0.925689,0.69991 1.467556,1.94169 0.541867,1.24178 0.541867,2.75449 0,1.51271 -0.541867,2.75449 -0.541867,1.24178 -1.467556,1.96427 -0.903111,0.69991 -1.964266,0.69991 -0.880534,0 -1.580445,-0.56445 -0.699911,-0.58702 -1.038578,-1.39982 l -0.09031,0.0226 v 5.82506 q 0,0.27094 0.112889,0.38383 0.112889,0.11289 0.383822,0.11289 h 1.174045 v 0.54186 h -4.967111 z m 5.757333,-5.01227 q 1.106311,0 1.670756,-1.24178 0.564444,-1.24178 0.564444,-3.54471 0,-2.30293 -0.564444,-3.54471 -0.564445,-1.24178 -1.670756,-1.24178 -0.677333,0 -1.241778,0.49671 -0.564444,0.49671 -0.903111,1.37725 -0.316089,0.85795 -0.316089,1.87395 v 2.07716 q 0,1.016 0.316089,1.89653 0.338667,0.85796 0.903111,1.35467 0.564445,0.49671 1.241778,0.49671 z"
         style="font-style:normal;font-variant:normal;font-weight:normal;font-stretch:normal;font-size:22.57777786px;font-family:'Old Standard TT';-inkscape-font-specification:'Old Standard TT';fill:#444444;fill-opacity:1;stroke-width:0.26458332"
         id="path17" />
      <path
         d="m 54.365557,110.03583 q -0.496712,0 -0.835378,-0.33866 -0.338667,-0.33867 -0.338667,-0.83538 0,-0.51929 0.338667,-0.83538 0.338666,-0.33867 0.835378,-0.33867 0.519288,0 0.835377,0.33867 0.338667,0.31609 0.338667,0.83538 0,0.49671 -0.338667,0.83538 -0.316089,0.33866 -0.835377,0.33866 z m -2.122312,12.55325 h 0.948267 q 0.270933,0 0.383822,-0.11289 0.112889,-0.11289 0.112889,-0.38382 v -8.21832 q 0,-0.27093 -0.112889,-0.38382 -0.112889,-0.11289 -0.383822,-0.11289 h -0.948267 v -0.54186 h 3.070578 v 9.25689 q 0,0.27093 0.112889,0.38382 0.112889,0.11289 0.383822,0.11289 h 0.948267 v 0.54186 h -4.515556 z"
         style="font-style:normal;font-variant:normal;font-weight:normal;font-stretch:normal;font-size:22.57777786px;font-family:'Old Standard TT';-inkscape-font-specification:'Old Standard TT';fill:#444444;fill-opacity:1;stroke-width:0.26458332"
         id="path19" />
      <path
         d="m 58.339212,122.58908 h 0.948266 q 0.270934,0 0.383823,-0.11289 0.112889,-0.11289 0.112889,-0.38382 v -8.21832 q 0,-0.27093 -0.112889,-0.38382 -0.112889,-0.11289 -0.383823,-0.11289 h -0.948266 v -0.54186 h 3.070578 v 1.85137 l 0.09031,0.0226 q 0.519289,-1.08373 1.286933,-1.60302 0.767644,-0.54187 1.693333,-0.54187 1.648178,0 2.325512,1.016 0.699911,1.016 0.699911,2.4384 v 6.07343 q 0,0.27093 0.112889,0.38382 0.112888,0.11289 0.383822,0.11289 h 0.948266 v 0.54186 h -4.515555 v -0.54186 h 0.948266 q 0.270934,0 0.383823,-0.11289 0.112889,-0.11289 0.112889,-0.38382 v -6.5024 q 0,-0.99343 -0.4064,-1.69334 -0.383823,-0.69991 -1.332089,-0.69991 -0.790223,0 -1.4224,0.56445 -0.6096,0.54186 -0.970845,1.51271 -0.338666,0.94826 -0.338666,2.12231 v 4.69618 q 0,0.27093 0.112888,0.38382 0.112889,0.11289 0.383823,0.11289 h 0.948266 v 0.54186 h -4.515555 z"
         style="font-style:normal;font-variant:normal;font-weight:normal;font-stretch:normal;font-size:22.57777786px;font-family:'Old Standard TT';-inkscape-font-specification:'Old Standard TT';fill:#444444;fill-opacity:1;stroke-width:0.26458332"
         id="path21" />
      <path
         d="m 75.724079,128.50445 q -1.986844,0 -3.431822,-0.63217 -1.444978,-0.63218 -1.444978,-1.98685 0,-0.83538 0.654756,-1.46755 0.654755,-0.63218 1.557866,-0.76765 v -0.0677 q -1.986844,-0.42898 -1.986844,-1.67076 0,-0.92569 0.699911,-1.44497 0.722489,-0.54187 1.761067,-0.72249 v -0.0677 q -0.948267,-0.4064 -1.6256,-1.2192 -0.654756,-0.83537 -0.654756,-2.19004 0,-1.15147 0.564445,-1.98685 0.564444,-0.83537 1.467555,-1.26435 0.925689,-0.45156 1.986845,-0.45156 0.654755,0 1.286933,0.22578 0.654756,0.2032 1.106311,0.49671 0.474133,0.27094 0.6096,0.45156 0.2032,-0.58702 0.654756,-0.88054 0.451555,-0.29351 0.903111,-0.29351 0.767644,0 1.264355,0.45156 0.496711,0.45155 0.496711,1.17404 0,0.54187 -0.270933,0.88054 -0.248355,0.33866 -0.677333,0.33866 -0.361245,0 -0.632178,-0.18062 -0.270933,-0.2032 -0.270933,-0.63218 0,-0.49671 0.383822,-0.72249 0.135467,-0.0903 0.180622,-0.15804 0.06773,-0.0903 0.06773,-0.24836 0,-0.18062 -0.180622,-0.27093 -0.180622,-0.0903 -0.428978,-0.0903 -0.4064,0 -0.745066,0.33867 -0.316089,0.31609 -0.361245,0.74506 0.632178,0.88054 0.632178,2.07716 0,1.12889 -0.541867,1.98684 -0.541866,0.83538 -1.467555,1.28694 -0.903111,0.42897 -2.009422,0.42897 -1.286934,0 -2.302934,0.36125 -0.993422,0.33867 -0.993422,1.15147 0,0.42897 0.383822,0.58702 0.383822,0.15804 1.061156,0.15804 0.474133,0 0.767644,-0.0226 0.270934,-0.0226 0.699911,-0.0226 h 2.325512 q 1.444977,0 2.415822,0.79022 0.970844,0.76764 0.970844,2.28035 0,1.58045 -1.354666,2.41583 -1.332089,0.83537 -3.522134,0.83537 z m -0.451555,-9.07626 q 1.038577,0 1.6256,-0.83538 0.587022,-0.83538 0.587022,-2.32551 0,-1.49013 -0.587022,-2.32551 -0.587023,-0.83538 -1.6256,-0.83538 -1.038578,0 -1.6256,0.83538 -0.587023,0.83538 -0.587023,2.32551 0,1.49013 0.587023,2.32551 0.587022,0.83538 1.6256,0.83538 z m 0.451555,8.5344 q 1.6256,0 2.8448,-0.58702 1.2192,-0.56445 1.2192,-1.94169 0,-0.69991 -0.428978,-1.2192 -0.4064,-0.49671 -1.444977,-0.49671 H 75.40799 q -1.444978,0 -2.506133,0.47413 -1.061156,0.49671 -1.061156,1.64818 0,1.06115 1.196623,1.58044 1.196622,0.54187 2.686755,0.54187 z"
         style="font-style:normal;font-variant:normal;font-weight:normal;font-stretch:normal;font-size:22.57777786px;font-family:'Old Standard TT';-inkscape-font-specification:'Old Standard TT';fill:#444444;fill-opacity:1;stroke-width:0.26458332"
         id="path23" />
      <path
         d="m 85.838902,123.40188 q -1.196622,0 -2.077156,-0.58703 -0.857955,-0.58702 -0.857955,-2.07715 0,-1.15147 0.587022,-1.80622 0.587022,-0.65476 1.354667,-0.92569 0.790222,-0.29351 1.896533,-0.49671 l 2.077156,-0.38383 v -1.91911 q 0,-2.09973 -2.099734,-2.09973 -0.767644,0 -1.399822,0.4064 -0.632178,0.38382 -0.632178,0.88053 0,0.22578 0.06773,0.33867 0.04516,0.0677 0.135466,0.13547 0.112889,0.0677 0.2032,0.0903 0.4064,0.11289 0.6096,0.31609 0.225778,0.2032 0.225778,0.56444 0,0.47413 -0.293511,0.67733 -0.270933,0.2032 -0.699911,0.2032 -0.496711,0 -0.903111,-0.38382 -0.4064,-0.38382 -0.4064,-1.10631 0,-0.83538 0.451555,-1.44498 0.474134,-0.6096 1.196623,-0.90311 0.745066,-0.31609 1.512711,-0.31609 1.490133,0 2.573866,0.79023 1.083734,0.76764 1.083734,2.41582 v 5.55413 q 0,1.12889 0.699911,1.12889 0.564444,0 0.8128,-0.65476 0.248355,-0.65475 0.248355,-1.60302 h 0.4064 q 0,1.35467 -0.4064,2.28036 -0.383822,0.92569 -1.399822,0.92569 -0.970844,0 -1.467555,-0.56445 -0.474134,-0.58702 -0.519289,-1.60302 l -0.112889,-0.0452 q -0.338667,0.79023 -1.106311,1.51272 -0.745067,0.69991 -1.761067,0.69991 z m 0.361245,-0.8128 q 1.016,0 1.580444,-0.79023 0.587022,-0.8128 1.038578,-2.05457 v -2.14489 l -1.964267,0.42898 q -1.083733,0.22577 -1.580444,0.90311 -0.474134,0.65475 -0.474134,1.87395 0,1.03858 0.428978,1.4224 0.428978,0.36125 0.970845,0.36125 z"
         style="font-style:normal;font-variant:normal;font-weight:normal;font-stretch:normal;font-size:22.57777786px;font-family:'Old Standard TT';-inkscape-font-specification:'Old Standard TT';fill:#444444;fill-opacity:1;stroke-width:0.26458332"
         id="path25" />
      <path
         d="m 93.650803,122.58908 h 1.174044 q 0.270934,0 0.383822,-0.11289 0.112889,-0.11289 0.112889,-0.38382 v -13.99823 q 0,-0.27093 -0.112889,-0.38382 -0.112888,-0.11289 -0.383822,-0.11289 h -1.174044 v -0.54186 h 3.296355 v 15.0368 q 0,0.27093 0.112889,0.38382 0.112889,0.11289 0.383822,0.11289 h 1.174045 v 0.54186 h -4.967111 z"
         style="font-style:normal;font-variant:normal;font-weight:normal;font-stretch:normal;font-size:22.57777786px;font-family:'Old Standard TT';-inkscape-font-specification:'Old Standard TT';fill:#444444;fill-opacity:1;stroke-width:0.26458332"
         id="path27" />
      <path
         d="m 102.09485,110.03583 q -0.49671,0 -0.83537,-0.33866 -0.33867,-0.33867 -0.33867,-0.83538 0,-0.51929 0.33867,-0.83538 0.33866,-0.33867 0.83537,-0.33867 0.51929,0 0.83538,0.33867 0.33867,0.31609 0.33867,0.83538 0,0.49671 -0.33867,0.83538 -0.31609,0.33866 -0.83538,0.33866 z m -2.122307,12.55325 h 0.948267 q 0.27093,0 0.38382,-0.11289 0.11289,-0.11289 0.11289,-0.38382 v -8.21832 q 0,-0.27093 -0.11289,-0.38382 -0.11289,-0.11289 -0.38382,-0.11289 h -0.948267 v -0.54186 h 3.070577 v 9.25689 q 0,0.27093 0.11289,0.38382 0.11289,0.11289 0.38382,0.11289 h 0.94827 v 0.54186 h -4.515557 z"
         style="font-style:normal;font-variant:normal;font-weight:normal;font-stretch:normal;font-size:22.57777786px;font-family:'Old Standard TT';-inkscape-font-specification:'Old Standard TT';fill:#444444;fill-opacity:1;stroke-width:0.26458332"
         id="path29" />
      <path
         d="m 110.94531,123.40188 q -2.09973,0 -3.38666,-1.4224 -1.26436,-1.4224 -1.26436,-3.95111 0,-1.44498 0.56445,-2.68676 0.56444,-1.26436 1.55786,-2.00942 1.016,-0.76765 2.25778,-0.76765 1.37724,0 2.25778,0.74507 0.88053,0.74507 1.26435,1.89653 0.4064,1.12889 0.4064,2.32551 0,0.24836 -0.15804,0.33867 -0.15805,0.0677 -0.54187,0.0677 h -5.62186 q 0,2.25778 0.63217,3.58987 0.65476,1.33209 2.12231,1.33209 1.03858,0 1.94169,-0.79022 0.92569,-0.79022 1.17405,-2.46098 h 0.54186 q -0.13546,1.64818 -1.15146,2.73191 -0.99342,1.06116 -2.59645,1.06116 z m 1.71591,-6.00569 q 0,-1.80622 -0.47413,-3.048 -0.47413,-1.24178 -1.55787,-1.24178 -1.15146,0 -1.76106,1.26436 -0.58702,1.24177 -0.58702,3.02542 z"
         style="font-style:normal;font-variant:normal;font-weight:normal;font-stretch:normal;font-size:22.57777786px;font-family:'Old Standard TT';-inkscape-font-specification:'Old Standard TT';fill:#444444;fill-opacity:1;stroke-width:0.26458332"
         id="path31" />
      <path
         d="m 116.45427,122.58908 h 0.94827 q 0.27093,0 0.38382,-0.11289 0.11289,-0.11289 0.11289,-0.38382 v -8.21832 q 0,-0.27093 -0.11289,-0.38382 -0.11289,-0.11289 -0.38382,-0.11289 h -0.94827 v -0.54186 h 3.07058 v 1.85137 l 0.0903,0.0226 q 0.51929,-1.08373 1.28693,-1.60302 0.76765,-0.54187 1.69334,-0.54187 1.64817,0 2.32551,1.016 0.69991,1.016 0.69991,2.4384 v 6.07343 q 0,0.27093 0.11289,0.38382 0.11289,0.11289 0.38382,0.11289 h 0.94827 v 0.54186 h -4.51556 v -0.54186 h 0.94827 q 0.27093,0 0.38382,-0.11289 0.11289,-0.11289 0.11289,-0.38382 v -6.5024 q 0,-0.99343 -0.4064,-1.69334 -0.38382,-0.69991 -1.33209,-0.69991 -0.79022,0 -1.4224,0.56445 -0.6096,0.54186 -0.97084,1.51271 -0.33867,0.94826 -0.33867,2.12231 v 4.69618 q 0,0.27093 0.11289,0.38382 0.11289,0.11289 0.38382,0.11289 h 0.94827 v 0.54186 h -4.51556 z"
         style="font-style:normal;font-variant:normal;font-weight:normal;font-stretch:normal;font-size:22.57777786px;font-family:'Old Standard TT';-inkscape-font-specification:'Old Standard TT';fill:#444444;fill-opacity:1;stroke-width:0.26458332"
         id="path33" />
      <path
         d="m 133.29727,123.40188 q -1.30951,0 -2.32551,-0.72249 -0.99342,-0.72249 -1.55787,-1.96427 -0.54186,-1.24178 -0.54186,-2.73191 0,-1.49013 0.56444,-2.73191 0.56445,-1.24178 1.55787,-1.96427 1.016,-0.72249 2.30293,-0.72249 1.03858,0 1.80622,0.45156 0.76765,0.42898 1.17405,1.12889 0.4064,0.67733 0.4064,1.37724 0,0.69991 -0.36125,1.10631 -0.36124,0.38383 -0.88053,0.38383 -0.45156,0 -0.76764,-0.29352 -0.29352,-0.29351 -0.29352,-0.69991 0,-0.4064 0.22578,-0.67733 0.22578,-0.27093 0.54187,-0.36124 0.36124,-0.11289 0.36124,-0.4064 0,-0.27094 -0.24835,-0.6096 -0.22578,-0.33867 -0.72249,-0.58703 -0.49671,-0.27093 -1.24178,-0.27093 -1.4224,0 -1.94169,1.2192 -0.49671,1.2192 -0.49671,3.6576 0,2.4384 0.49671,3.6576 0.49671,1.2192 1.94169,1.2192 1.37725,0 2.12231,-0.97084 0.74507,-0.97085 0.90311,-2.28036 h 0.54187 q -0.0677,0.92569 -0.47413,1.80622 -0.4064,0.85796 -1.19663,1.4224 -0.79022,0.56445 -1.89653,0.56445 z"
         style="font-style:normal;font-variant:normal;font-weight:normal;font-stretch:normal;font-size:22.57777786px;font-family:'Old Standard TT';-inkscape-font-specification:'Old Standard TT';fill:#444444;fill-opacity:1;stroke-width:0.26458332"
         id="path35" />
      <path
         d="m 138.49014,122.58908 h 0.94826 q 0.27094,0 0.38383,-0.11289 0.11288,-0.11289 0.11288,-0.38382 v -8.21832 q 0,-0.27093 -0.11288,-0.38382 -0.11289,-0.11289 -0.38383,-0.11289 h -0.94826 v -0.54186 h 3.07057 v 2.25777 l 0.0903,0.0226 q 0.47413,-1.17404 1.2192,-1.85138 0.76764,-0.69991 1.6256,-0.69991 0.85795,0 1.39982,0.49671 0.54186,0.49672 0.54186,1.35467 0,0.49671 -0.36124,0.97085 -0.33867,0.47413 -0.88053,0.47413 -0.42898,0 -0.72249,-0.22578 -0.29351,-0.22578 -0.29351,-0.63218 0,-0.47413 0.45155,-0.8128 0.2032,-0.13546 0.29351,-0.24835 0.11289,-0.11289 0.11289,-0.29351 0,-0.2032 -0.2032,-0.31609 -0.18062,-0.13547 -0.51929,-0.13547 -0.69991,0 -1.35466,0.67733 -0.63218,0.67734 -1.016,1.76107 -0.38383,1.08373 -0.38383,2.25778 v 4.19947 q 0,0.27093 0.11289,0.38382 0.11289,0.11289 0.38383,0.11289 h 0.94826 v 0.54186 h -4.51555 z"
         style="font-style:normal;font-variant:normal;font-weight:normal;font-stretch:normal;font-size:22.57777786px;font-family:'Old Standard TT';-inkscape-font-specification:'Old Standard TT';fill:#444444;fill-opacity:1;stroke-width:0.26458332"
         id="path37" />
      <path
         d="m 152.62382,123.40188 q -2.09974,0 -3.38667,-1.4224 -1.26435,-1.4224 -1.26435,-3.95111 0,-1.44498 0.56444,-2.68676 0.56444,-1.26436 1.55787,-2.00942 1.016,-0.76765 2.25777,-0.76765 1.37725,0 2.25778,0.74507 0.88054,0.74507 1.26436,1.89653 0.4064,1.12889 0.4064,2.32551 0,0.24836 -0.15805,0.33867 -0.15804,0.0677 -0.54186,0.0677 h -5.62187 q 0,2.25778 0.63218,3.58987 0.65475,1.33209 2.12231,1.33209 1.03858,0 1.94169,-0.79022 0.92569,-0.79022 1.17404,-2.46098 h 0.54187 q -0.13547,1.64818 -1.15147,2.73191 -0.99342,1.06116 -2.59644,1.06116 z m 1.71591,-6.00569 q 0,-1.80622 -0.47413,-3.048 -0.47414,-1.24178 -1.55787,-1.24178 -1.15147,0 -1.76107,1.26436 -0.58702,1.24177 -0.58702,3.02542 z"
         style="font-style:normal;font-variant:normal;font-weight:normal;font-stretch:normal;font-size:22.57777786px;font-family:'Old Standard TT';-inkscape-font-specification:'Old Standard TT';fill:#444444;fill-opacity:1;stroke-width:0.26458332"
         id="path39" />
      <path
         d="m 161.24851,123.40188 q -1.19662,0 -2.07716,-0.58703 -0.85795,-0.58702 -0.85795,-2.07715 0,-1.15147 0.58702,-1.80622 0.58702,-0.65476 1.35467,-0.92569 0.79022,-0.29351 1.89653,-0.49671 l 2.07716,-0.38383 v -1.91911 q 0,-2.09973 -2.09974,-2.09973 -0.76764,0 -1.39982,0.4064 -0.63218,0.38382 -0.63218,0.88053 0,0.22578 0.0677,0.33867 0.0452,0.0677 0.13546,0.13547 0.11289,0.0677 0.2032,0.0903 0.4064,0.11289 0.6096,0.31609 0.22578,0.2032 0.22578,0.56444 0,0.47413 -0.29351,0.67733 -0.27093,0.2032 -0.69991,0.2032 -0.49671,0 -0.90311,-0.38382 -0.4064,-0.38382 -0.4064,-1.10631 0,-0.83538 0.45155,-1.44498 0.47414,-0.6096 1.19662,-0.90311 0.74507,-0.31609 1.51272,-0.31609 1.49013,0 2.57386,0.79023 1.08374,0.76764 1.08374,2.41582 v 5.55413 q 0,1.12889 0.69991,1.12889 0.56444,0 0.8128,-0.65476 0.24835,-0.65475 0.24835,-1.60302 h 0.4064 q 0,1.35467 -0.4064,2.28036 -0.38382,0.92569 -1.39982,0.92569 -0.97084,0 -1.46756,-0.56445 -0.47413,-0.58702 -0.51928,-1.60302 l -0.11289,-0.0452 q -0.33867,0.79023 -1.10631,1.51272 -0.74507,0.69991 -1.76107,0.69991 z m 0.36124,-0.8128 q 1.016,0 1.58045,-0.79023 0.58702,-0.8128 1.03858,-2.05457 v -2.14489 l -1.96427,0.42898 q -1.08373,0.22577 -1.58045,0.90311 -0.47413,0.65475 -0.47413,1.87395 0,1.03858 0.42898,1.4224 0.42898,0.36125 0.97084,0.36125 z"
         style="font-style:normal;font-variant:normal;font-weight:normal;font-stretch:normal;font-size:22.57777786px;font-family:'Old Standard TT';-inkscape-font-specification:'Old Standard TT';fill:#444444;fill-opacity:1;stroke-width:0.26458332"
         id="path41" />
      <path
         d="m 173.07925,123.40188 q -1.016,0 -1.69333,-0.72249 -0.65475,-0.72249 -0.65475,-1.96427 v -7.24747 h -1.67076 v -0.63217 h 0.49671 q 1.016,0 1.58045,-1.08374 0.58702,-1.10631 0.58702,-2.4384 v -0.8128 h 0.63218 v 4.33494 h 2.79964 v 0.63217 h -2.79964 v 7.36036 q 0,0.67733 0.27093,1.12889 0.27093,0.45155 0.92569,0.45155 1.60302,0 1.60302,-2.70933 h 0.4064 q 0,1.51271 -0.45156,2.61902 -0.42897,1.08374 -2.032,1.08374 z"
         style="font-style:normal;font-variant:normal;font-weight:normal;font-stretch:normal;font-size:22.57777786px;font-family:'Old Standard TT';-inkscape-font-specification:'Old Standard TT';fill:#444444;fill-opacity:1;stroke-width:0.26458332"
         id="path43" />
      <path
         d="m 181.52331,123.40188 q -1.64818,0 -2.34809,-1.016 -0.67733,-1.016 -0.67733,-2.4384 v -6.07343 q 0,-0.27093 -0.11289,-0.38382 -0.11289,-0.11289 -0.38382,-0.11289 h -0.94827 v -0.54186 h 3.07058 v 7.54097 q 0,0.99343 0.38382,1.69334 0.4064,0.69991 1.35467,0.69991 0.79022,0 1.39982,-0.54187 0.63218,-0.56444 0.97085,-1.51271 0.36124,-0.97084 0.36124,-2.14489 v -4.69618 q 0,-0.27093 -0.11289,-0.38382 -0.11289,-0.11289 -0.38382,-0.11289 h -0.94827 v -0.54186 h 3.07058 v 9.25689 q 0,0.27093 0.11289,0.38382 0.11289,0.11289 0.38382,0.11289 h 0.94827 v 0.54186 h -3.07058 v -1.85137 l -0.0903,-0.0226 q -0.51929,1.08373 -1.28693,1.6256 -0.76765,0.51929 -1.69334,0.51929 z"
         style="font-style:normal;font-variant:normal;font-weight:normal;font-stretch:normal;font-size:22.57777786px;font-family:'Old Standard TT';-inkscape-font-specification:'Old Standard TT';fill:#444444;fill-opacity:1;stroke-width:0.26458332"
         id="path45" />
      <path
         d="m 189.24488,122.58908 h 0.94827 q 0.27093,0 0.38382,-0.11289 0.11289,-0.11289 0.11289,-0.38382 v -8.21832 q 0,-0.27093 -0.11289,-0.38382 -0.11289,-0.11289 -0.38382,-0.11289 h -0.94827 v -0.54186 h 3.07058 v 2.25777 l 0.0903,0.0226 q 0.47413,-1.17404 1.2192,-1.85138 0.76765,-0.69991 1.6256,-0.69991 0.85796,0 1.39982,0.49671 0.54187,0.49672 0.54187,1.35467 0,0.49671 -0.36124,0.97085 -0.33867,0.47413 -0.88054,0.47413 -0.42898,0 -0.72249,-0.22578 -0.29351,-0.22578 -0.29351,-0.63218 0,-0.47413 0.45156,-0.8128 0.2032,-0.13546 0.29351,-0.24835 0.11289,-0.11289 0.11289,-0.29351 0,-0.2032 -0.2032,-0.31609 -0.18062,-0.13547 -0.51929,-0.13547 -0.69991,0 -1.35467,0.67733 -0.63218,0.67734 -1.016,1.76107 -0.38382,1.08373 -0.38382,2.25778 v 4.19947 q 0,0.27093 0.11289,0.38382 0.11289,0.11289 0.38382,0.11289 h 0.94827 v 0.54186 h -4.51556 z"
         style="font-style:normal;font-variant:normal;font-weight:normal;font-stretch:normal;font-size:22.57777786px;font-family:'Old Standard TT';-inkscape-font-specification:'Old Standard TT';fill:#444444;fill-opacity:1;stroke-width:0.26458332"
         id="path47" />
      <path
         d="m 203.37856,123.40188 q -2.09973,0 -3.38666,-1.4224 -1.26436,-1.4224 -1.26436,-3.95111 0,-1.44498 0.56445,-2.68676 0.56444,-1.26436 1.55786,-2.00942 1.016,-0.76765 2.25778,-0.76765 1.37724,0 2.25778,0.74507 0.88053,0.74507 1.26435,1.89653 0.4064,1.12889 0.4064,2.32551 0,0.24836 -0.15804,0.33867 -0.15805,0.0677 -0.54187,0.0677 h -5.62186 q 0,2.25778 0.63217,3.58987 0.65476,1.33209 2.12231,1.33209 1.03858,0 1.94169,-0.79022 0.92569,-0.79022 1.17405,-2.46098 h 0.54186 q -0.13546,1.64818 -1.15146,2.73191 -0.99342,1.06116 -2.59645,1.06116 z m 1.71591,-6.00569 q 0,-1.80622 -0.47413,-3.048 -0.47413,-1.24178 -1.55787,-1.24178 -1.15146,0 -1.76106,1.26436 -0.58702,1.24177 -0.58702,3.02542 z"
         style="font-style:normal;font-variant:normal;font-weight:normal;font-stretch:normal;font-size:22.57777786px;font-family:'Old Standard TT';-inkscape-font-specification:'Old Standard TT';fill:#444444;fill-opacity:1;stroke-width:0.26458332"
         id="path49" />
    </g>
  </g>
</svg>
